<svg width="94" height="100" viewBox="0 0 94 100" fill="none" xmlns="http://www.w3.org/2000/svg">
<g clip-path="url(#clip0_2847_292)">
<path d="M50.0001 98.1999C48.1001 99.2999 45.8001 99.2999 43.9001 98.1999L3.10007 73.6999C-1.99993 70.5999 0.100074 62.7 6.10007 62.7H87.7001C93.7001 62.7 95.9001 70.5999 90.7001 73.6999L50.0001 98.1999Z" fill="#FFC700"/>
<path d="M34.2999 29.8999H59.6999C62.9999 29.8999 63.5999 30.4999 63.5999 33.7999V66.1999C63.5999 69.4999 62.9999 70.0999 59.6999 70.0999H34.2999C30.9999 70.0999 30.3999 69.4999 30.3999 66.1999V33.7999C30.3999 30.5999 30.9999 29.8999 34.2999 29.8999Z" fill="#FFC700"/>
<path d="M34.2999 20.8999H59.6999C62.9999 20.8999 63.5999 21.4999 63.5999 24.7999V24.1999C63.5999 27.4999 62.9999 28.0999 59.6999 28.0999H34.2999C30.9999 28.0999 30.3999 27.4999 30.3999 24.1999V24.7999C30.3999 21.5999 30.9999 20.8999 34.2999 20.8999Z" fill="#FFC700"/>
<path d="M34.2999 11.8999H59.6999C62.9999 11.8999 63.5999 12.4999 63.5999 15.7999V15.1999C63.5999 18.4999 62.9999 19.0999 59.6999 19.0999H34.2999C30.9999 19.0999 30.3999 18.4999 30.3999 15.1999V15.7999C30.3999 12.5999 30.9999 11.8999 34.2999 11.8999Z" fill="#FFC700"/>
<path d="M34.2999 2.8999H59.6999C62.9999 2.8999 63.5999 3.4999 63.5999 6.7999V6.1999C63.5999 9.4999 62.9999 10.0999 59.6999 10.0999H34.2999C30.9999 10.0999 30.3999 9.4999 30.3999 6.1999V6.7999C30.3999 3.5999 30.9999 2.8999 34.2999 2.8999Z" fill="#FFC700"/>
</g>
<defs>
<clipPath id="clip0_2847_292">
<rect width="93.9" height="99.4" fill="white"/>
</clipPath>
</defs>
</svg>
