<svg width="378" height="140" viewBox="0 0 378 140" fill="none" xmlns="http://www.w3.org/2000/svg">
<path fill-rule="evenodd" clip-rule="evenodd" d="M378 0H0V140H378V0ZM91.1194 69.7451C91.1194 95.0342 107.938 111.49 133.348 111.49C159 111.49 175.698 95.0342 175.698 69.7451C175.698 44.4561 159 28 133.348 28C107.938 28 91.1194 44.4561 91.1194 69.7451ZM161.904 69.7451C161.904 89.9521 152.587 98.9058 133.348 98.9058C114.109 98.9058 104.913 89.9521 104.913 69.7451C104.913 49.5381 114.109 40.4629 133.348 40.4629C152.587 40.4629 161.904 49.5381 161.904 69.7451ZM22.05 110.28H85.0911V98.543H35.1182V29.21H22.05V110.28ZM222.621 111.49C198.784 111.49 182.933 95.0342 182.933 69.7451C182.933 44.4561 199.994 28 225.888 28C248.878 28 264.85 39.6162 264.85 58.3711V59.3389H250.451V58.3711C250.451 46.7549 242.344 40.4629 225.525 40.4629C206.044 40.4629 196.727 49.5381 196.727 69.7451C196.727 89.9521 205.923 98.9058 224.92 98.9058C244.28 98.9058 251.903 93.582 251.903 79.9092V78.8198H221.895V68.8979H264.85V110.28H252.992V92.7349H252.145C248.757 104.593 238.472 111.49 222.621 111.49ZM273.447 69.7451C273.447 95.0342 290.265 111.49 315.676 111.49C341.327 111.49 358.025 95.0342 358.025 69.7451C358.025 44.4561 341.327 28 315.676 28C290.265 28 273.447 44.4561 273.447 69.7451ZM344.231 69.7451C344.231 89.9521 334.915 98.9058 315.676 98.9058C296.437 98.9058 287.24 89.9521 287.24 69.7451C287.24 49.5381 296.437 40.4629 315.676 40.4629C334.915 40.4629 344.231 49.5381 344.231 69.7451Z" fill="black"/>
</svg>
